<svg width="100" height="60" viewBox="0 0 100 60" fill="none" xmlns="http://www.w3.org/2000/svg">
<path d="M13.5888 56C13.2688 56 13.0588 55.85 12.9588 55.55L12.7588 54.56C12.5455 54.8 12.3222 55.0167 12.0888 55.21C11.8555 55.4033 11.6022 55.57 11.3288 55.71C11.0622 55.85 10.7722 55.9567 10.4588 56.03C10.1522 56.11 9.81883 56.15 9.45883 56.15C8.89883 56.15 8.38549 56.0333 7.91883 55.8C7.45216 55.5667 7.04883 55.23 6.70883 54.79C6.37549 54.3433 6.11549 53.7933 5.92883 53.14C5.74883 52.4867 5.65883 51.74 5.65883 50.9C5.65883 50.14 5.76216 49.4333 5.96883 48.78C6.17549 48.1267 6.47216 47.56 6.85883 47.08C7.24549 46.6 7.70883 46.2267 8.24883 45.96C8.78883 45.6867 9.3955 45.55 10.0688 45.55C10.6422 45.55 11.1322 45.6433 11.5388 45.83C11.9455 46.01 12.3088 46.2533 12.6288 46.56V41.14H15.0988V56H13.5888ZM10.2988 54.19C10.8122 54.19 11.2488 54.0833 11.6088 53.87C11.9688 53.6567 12.3088 53.3533 12.6288 52.96V48.36C12.3488 48.02 12.0422 47.78 11.7088 47.64C11.3822 47.5 11.0288 47.43 10.6488 47.43C10.2755 47.43 9.93549 47.5 9.62883 47.64C9.32883 47.78 9.07216 47.9933 8.85883 48.28C8.65216 48.56 8.49216 48.92 8.37883 49.36C8.26549 49.7933 8.20883 50.3067 8.20883 50.9C8.20883 51.5 8.25549 52.01 8.34883 52.43C8.44883 52.8433 8.58883 53.1833 8.76883 53.45C8.94883 53.71 9.16883 53.9 9.42883 54.02C9.68883 54.1333 9.97883 54.19 10.2988 54.19ZM22.0151 45.58C22.6617 45.58 23.2551 45.6833 23.7951 45.89C24.3417 46.0967 24.8117 46.4 25.2051 46.8C25.5984 47.1933 25.9051 47.68 26.1251 48.26C26.3451 48.8333 26.4551 49.49 26.4551 50.23C26.4551 50.4167 26.4451 50.5733 26.4251 50.7C26.4117 50.82 26.3817 50.9167 26.3351 50.99C26.2951 51.0567 26.2384 51.1067 26.1651 51.14C26.0917 51.1667 25.9984 51.18 25.8851 51.18H19.5451C19.6184 52.2333 19.9017 53.0067 20.3951 53.5C20.8884 53.9933 21.5417 54.24 22.3551 54.24C22.7551 54.24 23.0984 54.1933 23.3851 54.1C23.6784 54.0067 23.9317 53.9033 24.1451 53.79C24.3651 53.6767 24.5551 53.5733 24.7151 53.48C24.8817 53.3867 25.0417 53.34 25.1951 53.34C25.2951 53.34 25.3817 53.36 25.4551 53.4C25.5284 53.44 25.5917 53.4967 25.6451 53.57L26.3651 54.47C26.0917 54.79 25.7851 55.06 25.4451 55.28C25.1051 55.4933 24.7484 55.6667 24.3751 55.8C24.0084 55.9267 23.6317 56.0167 23.2451 56.07C22.8651 56.1233 22.4951 56.15 22.1351 56.15C21.4217 56.15 20.7584 56.0333 20.1451 55.8C19.5317 55.56 18.9984 55.21 18.5451 54.75C18.0917 54.2833 17.7351 53.71 17.4751 53.03C17.2151 52.3433 17.0851 51.55 17.0851 50.65C17.0851 49.95 17.1984 49.2933 17.4251 48.68C17.6517 48.06 17.9751 47.5233 18.3951 47.07C18.8217 46.61 19.3384 46.2467 19.9451 45.98C20.5584 45.7133 21.2484 45.58 22.0151 45.58ZM22.0651 47.35C21.3451 47.35 20.7817 47.5533 20.3751 47.96C19.9684 48.3667 19.7084 48.9433 19.5951 49.69H24.2351C24.2351 49.37 24.1917 49.07 24.1051 48.79C24.0184 48.5033 23.8851 48.2533 23.7051 48.04C23.5251 47.8267 23.2984 47.66 23.0251 47.54C22.7517 47.4133 22.4317 47.35 22.0651 47.35ZM32.4659 56V41.54H37.4559C38.4025 41.54 39.2092 41.63 39.8759 41.81C40.5492 41.99 41.0992 42.2467 41.5259 42.58C41.9592 42.9133 42.2759 43.3167 42.4759 43.79C42.6759 44.2633 42.7759 44.7967 42.7759 45.39C42.7759 45.73 42.7259 46.0567 42.6259 46.37C42.5259 46.6767 42.3692 46.9667 42.1559 47.24C41.9492 47.5067 41.6825 47.75 41.3559 47.97C41.0359 48.19 40.6525 48.3767 40.2059 48.53C42.1925 48.9767 43.1859 50.05 43.1859 51.75C43.1859 52.3633 43.0692 52.93 42.8359 53.45C42.6025 53.97 42.2625 54.42 41.8159 54.8C41.3692 55.1733 40.8192 55.4667 40.1659 55.68C39.5125 55.8933 38.7659 56 37.9259 56H32.4659ZM35.1559 49.66V53.9H37.8859C38.3859 53.9 38.8025 53.84 39.1359 53.72C39.4759 53.6 39.7459 53.44 39.9459 53.24C40.1525 53.04 40.2992 52.8067 40.3859 52.54C40.4792 52.2733 40.5259 51.99 40.5259 51.69C40.5259 51.3767 40.4759 51.0967 40.3759 50.85C40.2759 50.5967 40.1192 50.3833 39.9059 50.21C39.6925 50.03 39.4192 49.8933 39.0859 49.8C38.7525 49.7067 38.3492 49.66 37.8759 49.66H35.1559ZM35.1559 47.8H37.3059C38.2192 47.8 38.9125 47.6333 39.3859 47.3C39.8592 46.9667 40.0959 46.4367 40.0959 45.71C40.0959 44.9567 39.8825 44.42 39.4559 44.1C39.0292 43.78 38.3625 43.62 37.4559 43.62H35.1559V47.8ZM47.6132 45.74V52.26C47.6132 52.8867 47.7565 53.3733 48.0432 53.72C48.3365 54.06 48.7732 54.23 49.3532 54.23C49.7799 54.23 50.1799 54.1367 50.5532 53.95C50.9265 53.7567 51.2799 53.4933 51.6132 53.16V45.74H54.0832V56H52.5732C52.2532 56 52.0432 55.85 51.9432 55.55L51.7732 54.73C51.5599 54.9433 51.3399 55.14 51.1132 55.32C50.8865 55.4933 50.6432 55.6433 50.3832 55.77C50.1299 55.89 49.8532 55.9833 49.5532 56.05C49.2599 56.1233 48.9432 56.16 48.6032 56.16C48.0432 56.16 47.5465 56.0667 47.1132 55.88C46.6865 55.6867 46.3265 55.4167 46.0332 55.07C45.7399 54.7233 45.5165 54.3133 45.3632 53.84C45.2165 53.36 45.1432 52.8333 45.1432 52.26V45.74H47.6132ZM60.2704 45.56C60.7104 45.56 61.1237 45.6067 61.5104 45.7C61.8971 45.7867 62.2504 45.9167 62.5704 46.09H65.5204V47.01C65.5204 47.1633 65.4804 47.2833 65.4004 47.37C65.3204 47.4567 65.1837 47.5167 64.9904 47.55L64.0704 47.72C64.1371 47.8933 64.1871 48.0767 64.2204 48.27C64.2604 48.4633 64.2804 48.6667 64.2804 48.88C64.2804 49.3867 64.1771 49.8467 63.9704 50.26C63.7704 50.6667 63.4904 51.0133 63.1304 51.3C62.7771 51.5867 62.3537 51.81 61.8604 51.97C61.3737 52.1233 60.8437 52.2 60.2704 52.2C59.8837 52.2 59.5071 52.1633 59.1404 52.09C58.8204 52.2833 58.6604 52.5 58.6604 52.74C58.6604 52.9467 58.7537 53.1 58.9404 53.2C59.1337 53.2933 59.3837 53.36 59.6904 53.4C60.0037 53.44 60.3571 53.4667 60.7504 53.48C61.1437 53.4867 61.5471 53.5067 61.9604 53.54C62.3737 53.5733 62.7771 53.6333 63.1704 53.72C63.5637 53.8 63.9137 53.93 64.2204 54.11C64.5337 54.29 64.7837 54.5367 64.9704 54.85C65.1637 55.1567 65.2604 55.5533 65.2604 56.04C65.2604 56.4933 65.1471 56.9333 64.9204 57.36C64.7004 57.7867 64.3771 58.1667 63.9504 58.5C63.5304 58.8333 63.0137 59.1 62.4004 59.3C61.7871 59.5067 61.0871 59.61 60.3004 59.61C59.5204 59.61 58.8437 59.5333 58.2704 59.38C57.6971 59.2333 57.2204 59.0333 56.8404 58.78C56.4671 58.5333 56.1871 58.2467 56.0004 57.92C55.8137 57.5933 55.7204 57.2533 55.7204 56.9C55.7204 56.42 55.8671 56.0167 56.1604 55.69C56.4537 55.3633 56.8604 55.1033 57.3804 54.91C57.1271 54.77 56.9237 54.5833 56.7704 54.35C56.6171 54.1167 56.5404 53.8133 56.5404 53.44C56.5404 53.2867 56.5671 53.13 56.6204 52.97C56.6737 52.8033 56.7537 52.64 56.8604 52.48C56.9737 52.32 57.1137 52.17 57.2804 52.03C57.4471 51.8833 57.6437 51.7533 57.8704 51.64C57.3504 51.36 56.9404 50.9867 56.6404 50.52C56.3471 50.0533 56.2004 49.5067 56.2004 48.88C56.2004 48.3733 56.3004 47.9167 56.5004 47.51C56.7071 47.0967 56.9904 46.7467 57.3504 46.46C57.7171 46.1667 58.1471 45.9433 58.6404 45.79C59.1404 45.6367 59.6837 45.56 60.2704 45.56ZM62.9804 56.46C62.9804 56.26 62.9204 56.0967 62.8004 55.97C62.6804 55.8433 62.5171 55.7467 62.3104 55.68C62.1037 55.6067 61.8604 55.5533 61.5804 55.52C61.3071 55.4867 61.0137 55.4633 60.7004 55.45C60.3937 55.43 60.0737 55.4133 59.7404 55.4C59.4137 55.38 59.0971 55.35 58.7904 55.31C58.5104 55.4633 58.2837 55.6467 58.1104 55.86C57.9437 56.0667 57.8604 56.3067 57.8604 56.58C57.8604 56.76 57.9037 56.9267 57.9904 57.08C58.0837 57.24 58.2271 57.3767 58.4204 57.49C58.6204 57.6033 58.8771 57.69 59.1904 57.75C59.5037 57.8167 59.8871 57.85 60.3404 57.85C60.8004 57.85 61.1971 57.8133 61.5304 57.74C61.8637 57.6733 62.1371 57.5767 62.3504 57.45C62.5704 57.33 62.7304 57.1833 62.8304 57.01C62.9304 56.8433 62.9804 56.66 62.9804 56.46ZM60.2704 50.62C60.5771 50.62 60.8437 50.58 61.0704 50.5C61.2971 50.4133 61.4837 50.2967 61.6304 50.15C61.7837 50.0033 61.8971 49.8267 61.9704 49.62C62.0504 49.4133 62.0904 49.1867 62.0904 48.94C62.0904 48.4333 61.9371 48.0333 61.6304 47.74C61.3304 47.44 60.8771 47.29 60.2704 47.29C59.6637 47.29 59.2071 47.44 58.9004 47.74C58.6004 48.0333 58.4504 48.4333 58.4504 48.94C58.4504 49.18 58.4871 49.4033 58.5604 49.61C58.6404 49.8167 58.7537 49.9967 58.9004 50.15C59.0537 50.2967 59.2437 50.4133 59.4704 50.5C59.7037 50.58 59.9704 50.62 60.2704 50.62ZM70.622 45.56C71.062 45.56 71.4753 45.6067 71.862 45.7C72.2486 45.7867 72.602 45.9167 72.922 46.09H75.872V47.01C75.872 47.1633 75.832 47.2833 75.752 47.37C75.672 47.4567 75.5353 47.5167 75.342 47.55L74.422 47.72C74.4886 47.8933 74.5386 48.0767 74.572 48.27C74.612 48.4633 74.632 48.6667 74.632 48.88C74.632 49.3867 74.5286 49.8467 74.322 50.26C74.122 50.6667 73.842 51.0133 73.482 51.3C73.1286 51.5867 72.7053 51.81 72.212 51.97C71.7253 52.1233 71.1953 52.2 70.622 52.2C70.2353 52.2 69.8586 52.1633 69.492 52.09C69.172 52.2833 69.012 52.5 69.012 52.74C69.012 52.9467 69.1053 53.1 69.292 53.2C69.4853 53.2933 69.7353 53.36 70.042 53.4C70.3553 53.44 70.7086 53.4667 71.102 53.48C71.4953 53.4867 71.8986 53.5067 72.312 53.54C72.7253 53.5733 73.1286 53.6333 73.522 53.72C73.9153 53.8 74.2653 53.93 74.572 54.11C74.8853 54.29 75.1353 54.5367 75.322 54.85C75.5153 55.1567 75.612 55.5533 75.612 56.04C75.612 56.4933 75.4986 56.9333 75.272 57.36C75.052 57.7867 74.7286 58.1667 74.302 58.5C73.882 58.8333 73.3653 59.1 72.752 59.3C72.1386 59.5067 71.4386 59.61 70.652 59.61C69.872 59.61 69.1953 59.5333 68.622 59.38C68.0486 59.2333 67.572 59.0333 67.192 58.78C66.8186 58.5333 66.5386 58.2467 66.352 57.92C66.1653 57.5933 66.072 57.2533 66.072 56.9C66.072 56.42 66.2186 56.0167 66.512 55.69C66.8053 55.3633 67.212 55.1033 67.732 54.91C67.4786 54.77 67.2753 54.5833 67.122 54.35C66.9686 54.1167 66.892 53.8133 66.892 53.44C66.892 53.2867 66.9186 53.13 66.972 52.97C67.0253 52.8033 67.1053 52.64 67.212 52.48C67.3253 52.32 67.4653 52.17 67.632 52.03C67.7986 51.8833 67.9953 51.7533 68.222 51.64C67.702 51.36 67.292 50.9867 66.992 50.52C66.6986 50.0533 66.552 49.5067 66.552 48.88C66.552 48.3733 66.652 47.9167 66.852 47.51C67.0586 47.0967 67.342 46.7467 67.702 46.46C68.0686 46.1667 68.4986 45.9433 68.992 45.79C69.492 45.6367 70.0353 45.56 70.622 45.56ZM73.332 56.46C73.332 56.26 73.272 56.0967 73.152 55.97C73.032 55.8433 72.8686 55.7467 72.662 55.68C72.4553 55.6067 72.212 55.5533 71.932 55.52C71.6586 55.4867 71.3653 55.4633 71.052 55.45C70.7453 55.43 70.4253 55.4133 70.092 55.4C69.7653 55.38 69.4486 55.35 69.142 55.31C68.862 55.4633 68.6353 55.6467 68.462 55.86C68.2953 56.0667 68.212 56.3067 68.212 56.58C68.212 56.76 68.2553 56.9267 68.342 57.08C68.4353 57.24 68.5786 57.3767 68.772 57.49C68.972 57.6033 69.2286 57.69 69.542 57.75C69.8553 57.8167 70.2386 57.85 70.692 57.85C71.152 57.85 71.5486 57.8133 71.882 57.74C72.2153 57.6733 72.4886 57.5767 72.702 57.45C72.922 57.33 73.082 57.1833 73.182 57.01C73.282 56.8433 73.332 56.66 73.332 56.46ZM70.622 50.62C70.9286 50.62 71.1953 50.58 71.422 50.5C71.6486 50.4133 71.8353 50.2967 71.982 50.15C72.1353 50.0033 72.2486 49.8267 72.322 49.62C72.402 49.4133 72.442 49.1867 72.442 48.94C72.442 48.4333 72.2886 48.0333 71.982 47.74C71.682 47.44 71.2286 47.29 70.622 47.29C70.0153 47.29 69.5586 47.44 69.252 47.74C68.952 48.0333 68.802 48.4333 68.802 48.94C68.802 49.18 68.8386 49.4033 68.912 49.61C68.992 49.8167 69.1053 49.9967 69.252 50.15C69.4053 50.2967 69.5953 50.4133 69.822 50.5C70.0553 50.58 70.322 50.62 70.622 50.62ZM81.6635 45.58C82.3102 45.58 82.9035 45.6833 83.4435 45.89C83.9902 46.0967 84.4602 46.4 84.8535 46.8C85.2468 47.1933 85.5535 47.68 85.7735 48.26C85.9935 48.8333 86.1035 49.49 86.1035 50.23C86.1035 50.4167 86.0935 50.5733 86.0735 50.7C86.0602 50.82 86.0302 50.9167 85.9835 50.99C85.9435 51.0567 85.8868 51.1067 85.8135 51.14C85.7402 51.1667 85.6468 51.18 85.5335 51.18H79.1935C79.2668 52.2333 79.5502 53.0067 80.0435 53.5C80.5368 53.9933 81.1902 54.24 82.0035 54.24C82.4035 54.24 82.7468 54.1933 83.0335 54.1C83.3268 54.0067 83.5802 53.9033 83.7935 53.79C84.0135 53.6767 84.2035 53.5733 84.3635 53.48C84.5302 53.3867 84.6902 53.34 84.8435 53.34C84.9435 53.34 85.0302 53.36 85.1035 53.4C85.1768 53.44 85.2402 53.4967 85.2935 53.57L86.0135 54.47C85.7402 54.79 85.4335 55.06 85.0935 55.28C84.7535 55.4933 84.3968 55.6667 84.0235 55.8C83.6568 55.9267 83.2802 56.0167 82.8935 56.07C82.5135 56.1233 82.1435 56.15 81.7835 56.15C81.0702 56.15 80.4068 56.0333 79.7935 55.8C79.1802 55.56 78.6468 55.21 78.1935 54.75C77.7402 54.2833 77.3835 53.71 77.1235 53.03C76.8635 52.3433 76.7335 51.55 76.7335 50.65C76.7335 49.95 76.8468 49.2933 77.0735 48.68C77.3002 48.06 77.6235 47.5233 78.0435 47.07C78.4702 46.61 78.9868 46.2467 79.5935 45.98C80.2068 45.7133 80.8968 45.58 81.6635 45.58ZM81.7135 47.35C80.9935 47.35 80.4302 47.5533 80.0235 47.96C79.6168 48.3667 79.3568 48.9433 79.2435 49.69H83.8835C83.8835 49.37 83.8402 49.07 83.7535 48.79C83.6668 48.5033 83.5335 48.2533 83.3535 48.04C83.1735 47.8267 82.9468 47.66 82.6735 47.54C82.4002 47.4133 82.0802 47.35 81.7135 47.35ZM88.1071 56V45.74H89.5571C89.8104 45.74 89.9871 45.7867 90.0871 45.88C90.1871 45.9733 90.2538 46.1333 90.2871 46.36L90.4371 47.6C90.8038 46.9667 91.2338 46.4667 91.7271 46.1C92.2204 45.7333 92.7738 45.55 93.3871 45.55C93.8938 45.55 94.3138 45.6667 94.6471 45.9L94.3271 47.75C94.3071 47.87 94.2638 47.9567 94.1971 48.01C94.1304 48.0567 94.0404 48.08 93.9271 48.08C93.8271 48.08 93.6904 48.0567 93.5171 48.01C93.3438 47.9633 93.1138 47.94 92.8271 47.94C92.3138 47.94 91.8738 48.0833 91.5071 48.37C91.1404 48.65 90.8304 49.0633 90.5771 49.61V56H88.1071Z" fill="#30AA99"/>
<path d="M92.2727 19.4547C96.5336 19.4547 100 15.9881 100 11.7273C100 7.4666 96.5334 4 92.2727 4C84.8728 4 80.7662 6.43281 77.7652 8.21054C75.4602 9.57675 74.3031 10.2625 71.1365 10.2625C67.9682 10.2625 66.8105 9.57675 64.5039 8.21054C61.5057 6.43359 57.3994 4 49.9936 4C42.5926 4 38.4857 6.43359 35.4869 8.21054C33.1818 9.57675 32.0248 10.2625 28.8582 10.2625C25.6947 10.2625 24.5383 9.57714 22.2334 8.21132C21.7463 7.92246 21.2426 7.62382 20.6982 7.31836C19.9926 6.92246 19.0998 7.17363 18.7039 7.8791C18.3082 8.58476 18.5592 9.47753 19.2646 9.87343C19.7785 10.1619 20.267 10.4514 20.7408 10.7322C21.9607 11.4551 23.0098 12.0762 24.2623 12.5135V22.4078C20.4963 21.7396 18.0615 20.2984 15.8459 18.985C13.4359 17.5568 11.6947 16.525 7.72832 16.525C5.08203 16.525 2.92969 14.3728 2.92969 11.7273C2.92969 9.08183 5.08203 6.92969 7.72734 6.92969C9.88848 6.92969 11.8232 7.1457 13.6424 7.59043C14.4291 7.78242 15.2211 7.30097 15.4131 6.51523C15.6051 5.72929 15.1238 4.93652 14.3379 4.74453C12.2881 4.24355 10.1258 4 7.72734 4C3.4666 3.9998 0 7.4664 0 11.7273C0 15.9883 3.4666 19.4547 7.72734 19.4547C10.8908 19.4547 12.0473 20.14 14.3521 21.5058C15.0359 21.9111 15.7781 22.3506 16.6031 22.7875H7.72734C6.91836 22.7875 6.2625 23.4433 6.2625 24.2523C6.2625 25.0613 6.91836 25.7172 7.72734 25.7172H92.2725C93.0814 25.7172 93.7373 25.0613 93.7373 24.2523C93.7373 23.4433 93.0814 22.7875 92.2725 22.7875H83.3928C84.2174 22.351 84.9598 21.9117 85.6436 21.5066C87.9488 20.1404 89.1059 19.4547 92.2727 19.4547ZM66.5365 12.5137V22.4078C62.7691 21.7396 60.335 20.299 58.1199 18.9861C56.8939 18.2599 55.8404 17.6367 54.5797 17.1986V7.30683C58.3551 7.97402 60.7928 9.4166 63.0109 10.7312C64.2322 11.4549 65.2824 12.0762 66.5365 12.5137ZM49.9932 19.4547C53.1621 19.4547 54.3201 20.1404 56.6266 21.5066C57.31 21.9117 58.052 22.3508 58.8766 22.7875H41.1141C41.9391 22.3506 42.6814 21.9111 43.3652 21.5056C45.6705 20.1402 46.8277 19.4547 49.9932 19.4547ZM51.65 6.97519V16.5939C51.1416 16.549 50.5932 16.525 49.9932 16.525C49.3855 16.525 48.8307 16.5494 48.3172 16.5955V6.97597C48.8525 6.9459 49.4098 6.92949 49.9932 6.92949C50.5697 6.92949 51.1203 6.94589 51.65 6.97519ZM36.9801 10.7307C39.1936 9.41894 41.6264 7.97968 45.3873 7.31074V17.2062C44.1373 17.6435 43.0895 18.2639 41.8711 18.9857C39.6561 20.2988 37.2215 21.74 33.4537 22.4082V12.5142C34.7086 12.0766 35.7586 11.4547 36.9801 10.7307ZM27.1912 13.1223C27.7021 13.1678 28.2537 13.192 28.8576 13.192C29.4615 13.192 30.0131 13.1678 30.524 13.1223V22.7414C29.9914 22.7711 29.4375 22.7875 28.8576 22.7875C28.2777 22.7875 27.7236 22.7711 27.1912 22.7414V13.1223ZM71.1363 22.7877C70.5551 22.7877 70 22.7713 69.4664 22.7414V13.1223C69.9783 13.168 70.5312 13.1922 71.1363 13.1922C71.7389 13.1922 72.2893 13.168 72.7992 13.1226V17.9898C72.7992 18.7988 73.4551 19.4547 74.2641 19.4547C75.073 19.4547 75.7289 18.7988 75.7289 17.9898V12.5154C76.9855 12.0775 78.0371 11.4549 79.2609 10.7295C82.2676 8.94843 85.6754 6.92949 92.2727 6.92949C94.9182 6.92949 97.0703 9.08183 97.0703 11.7271C97.0703 14.3725 94.918 16.5248 92.2727 16.5248C88.3029 16.5248 86.5609 17.5572 84.148 18.9875C81.1412 20.7687 77.7336 22.7877 71.1363 22.7877Z" fill="#30AA99"/>
<path d="M92.2883 13.1924C93.0973 13.1924 93.7453 12.5365 93.7453 11.7275C93.7453 10.9186 93.0816 10.2627 92.2726 10.2627C91.4637 10.2627 90.8078 10.9186 90.8078 11.7275C90.8078 12.5365 91.4637 13.1924 92.2726 13.1924H92.2883Z" fill="#30AA99"/>
</svg>
